<?xml version="1.0" encoding="UTF-8"?>
<svg id="Layer_2" data-name="Layer 2" xmlns="http://www.w3.org/2000/svg" xmlns:xlink="http://www.w3.org/1999/xlink" viewBox="0 0 1500 1500">
  <defs>
    <style>
      .cls-1 {
        fill: #04555f;
      }

      .cls-2 {
        fill: url(#linear-gradient-2);
      }

      .cls-3 {
        fill: url(#linear-gradient-10);
      }

      .cls-4 {
        fill: #007888;
      }

      .cls-5 {
        fill: #007682;
      }

      .cls-6 {
        fill: #fff;
      }

      .cls-7 {
        fill: #00717f;
      }

      .cls-8 {
        fill: url(#linear-gradient-4);
      }

      .cls-9 {
        fill: #044c59;
      }

      .cls-10 {
        fill: url(#linear-gradient-3);
      }

      .cls-11 {
        fill: url(#linear-gradient-5);
      }

      .cls-12 {
        fill: #b88c0c;
      }

      .cls-13 {
        fill: url(#linear-gradient-8);
      }

      .cls-14 {
        fill: #e5b53b;
      }

      .cls-15 {
        fill: url(#linear-gradient-7);
      }

      .cls-16 {
        fill: url(#linear-gradient-9);
      }

      .cls-17 {
        fill: url(#linear-gradient-11);
      }

      .cls-18 {
        fill: url(#linear-gradient-6);
      }

      .cls-19 {
        fill: #03565c;
      }

      .cls-20 {
        fill: #fddc86;
      }

      .cls-21 {
        fill: url(#linear-gradient);
      }

      .cls-22 {
        fill: #007a87;
      }

      .cls-23 {
        fill: #988512;
      }
    </style>
    <linearGradient id="linear-gradient" x1="772.9" y1="893.14" x2="813.32" y2="938.8" gradientUnits="userSpaceOnUse">
      <stop offset=".02" stop-color="#075761"/>
      <stop offset=".47" stop-color="#01727c"/>
      <stop offset=".86" stop-color="#006e78"/>
    </linearGradient>
    <linearGradient id="linear-gradient-2" x1="724.49" y1="872.99" x2="777.31" y2="932.66" xlink:href="#linear-gradient"/>
    <linearGradient id="linear-gradient-3" x1="730.87" y1="260.71" x2="639.97" y2="1062.89" gradientUnits="userSpaceOnUse">
      <stop offset="0" stop-color="#05575c"/>
      <stop offset=".13" stop-color="#045e65"/>
      <stop offset=".43" stop-color="#026c77"/>
      <stop offset=".64" stop-color="#02727e"/>
      <stop offset=".99" stop-color="#006e78"/>
      <stop offset="1" stop-color="#006e78"/>
    </linearGradient>
    <linearGradient id="linear-gradient-4" x1="744.47" y1="243.75" x2="677.38" y2="275.13" gradientUnits="userSpaceOnUse">
      <stop offset=".05" stop-color="#044c59"/>
      <stop offset=".97" stop-color="#075862"/>
    </linearGradient>
    <linearGradient id="linear-gradient-5" x1="545.52" y1="288.34" x2="303.13" y2="1006.83" gradientUnits="userSpaceOnUse">
      <stop offset="0" stop-color="#044b59"/>
      <stop offset=".37" stop-color="#005868"/>
      <stop offset="1" stop-color="#005a66"/>
    </linearGradient>
    <linearGradient id="linear-gradient-6" x1="919.91" y1="1233.67" x2="496.81" y2="1086.37" gradientUnits="userSpaceOnUse">
      <stop offset="0" stop-color="#be8c04"/>
      <stop offset=".62" stop-color="#d9a302"/>
      <stop offset="1" stop-color="#e4ad02"/>
    </linearGradient>
    <linearGradient id="linear-gradient-7" x1="1238.93" y1="1218.72" x2="1040.02" y2="1149.47" gradientUnits="userSpaceOnUse">
      <stop offset="0" stop-color="#be8c04"/>
      <stop offset="1" stop-color="#c08e04"/>
    </linearGradient>
    <linearGradient id="linear-gradient-8" x1="202.17" y1="737.98" x2="850.07" y2="1370.46" gradientUnits="userSpaceOnUse">
      <stop offset="0" stop-color="#026573"/>
      <stop offset=".46" stop-color="#015b6a"/>
      <stop offset=".49" stop-color="#015968"/>
      <stop offset=".78" stop-color="#014857"/>
      <stop offset="1" stop-color="#014352"/>
    </linearGradient>
    <linearGradient id="linear-gradient-9" x1="692.03" y1="946.14" x2="916.98" y2="1365.28" gradientUnits="userSpaceOnUse">
      <stop offset=".08" stop-color="#f2e9d4"/>
      <stop offset=".31" stop-color="#faf6ef"/>
      <stop offset=".48" stop-color="#fff"/>
    </linearGradient>
    <linearGradient id="linear-gradient-10" x1="798.15" y1="1018.03" x2="675.84" y2="1201" gradientUnits="userSpaceOnUse">
      <stop offset="0" stop-color="#f5f4e8"/>
      <stop offset=".32" stop-color="#ddc07d"/>
      <stop offset=".6" stop-color="#cb9728"/>
      <stop offset=".72" stop-color="#c48707"/>
    </linearGradient>
    <linearGradient id="linear-gradient-11" x1="482.56" y1="513.68" x2="860.29" y2="1009.84" gradientUnits="userSpaceOnUse">
      <stop offset=".51" stop-color="#024a5b"/>
      <stop offset=".98" stop-color="#004353"/>
      <stop offset="1" stop-color="#004353"/>
    </linearGradient>
  </defs>
  <path class="cls-21" d="M779.59,921.77c-.94-.45-1.86-.94-2.77-1.41-1.05.17-2.05.34-3.01.49.9.51,1.83,1,2.75,1.47,7.91,4.18,16.44,8.1,25.54,11.43l.64-1.77c-8.19-3.01-15.94-6.48-23.15-10.21ZM823.22,910.02c-6.52,1.75-12.62,3.26-18.23,4.58-11.41,2.67-20.91,4.5-28.16,5.76-1.05.17-2.05.34-3.01.49-8.46,1.38-13.11,1.83-13.26,1.85l.19,1.88c.17-.02,5.76-.55,15.82-2.26.96-.17,1.98-.36,3.03-.55,7.87-1.39,18.01-3.43,30.06-6.35,5.8-1.39,12.04-3.01,18.69-4.84-1.71-.15-3.41-.34-5.12-.57Z"/>
  <path class="cls-2" d="M783,909.58c-7.4.68-14.62,1.32-21.44,1.9,4.77,3.01,9.85,5.99,15.26,8.87-1.05.17-2.05.34-3.01.49-5.44-2.96-10.55-6.03-15.31-9.1-26.8,2.32-46.77,3.77-47.26,3.8l-.13-1.86c.47-.04,19.27-1.41,44.83-3.62-23.7-15.69-37.9-30.89-38.12-31.12l1.39-1.28c.21.24,15.09,16.14,39.78,32.15,5.99-.53,12.34-1.07,18.87-1.68,7.04-.64,14.32-1.32,21.62-2.03,2.13.45,4.26.87,6.39,1.26-7.69.77-15.39,1.51-22.87,2.2Z"/>
  <path class="cls-10" d="M987.52,423.87c32,24.26,62.74,50.18,91.98,77.83-72.29-73.48-156.49-136.66-249.13-182.47,30.46-2.11,61.5-2.47,92.92-1.49,23.07.7,46.13,2.05,69.15,3.84-22.98-2.28-46.02-4.13-69.09-5.31-33.62-1.77-66.81-1.98-99.34-.15-18.21-8.82-36.75-16.95-55.59-24.37-25.64-9.38-52.29-17.42-79.53-20.31,7.72-4.82,15.67-9.53,23.85-14.11-2.62.34-5.73.7-8.87,1.05-.02,0-.04.02-.06.02-.58.06-1.15.13-1.73.19-3.99.47-7.84.9-10.28,1.22-42.93,6.16-84.44,17.52-123.36,33.75-29.23,12.32-56.68,27.75-81.96,45.87-1.21.83-2.39,1.7-3.58,2.56-1.3.94-2.6,1.9-3.88,2.86-39.74,29.69-73.84,65.96-100.74,106.88-1.38,2.07-2.71,4.16-4.05,6.27,0,.02-.02.02-.02.02-1.21,1.92-2.41,3.84-3.58,5.78-28.2,46.15-47.39,97.68-55.51,151.91-.04.34-.24,1.77-.51,3.64-.53,3.67-1.3,9.06-1.58,11.06l-.28,3.15-1.07,12.06c-.68,6.89-.89,14.35-1.13,22.25-.06,2.15-.11,4.28-.19,6.4.06,2.17.08,4.58.11,7.08.11,7.06.24,15.88.77,21.28l.06.62.04.62c.3,5.42.81,11.45,1.53,17.84v.02c.87,8.14,2.05,16.84,3.48,25.64,6.12,34.83,18.44,71.22,36.73,108.55,2.64,5.39,5.41,10.81,8.31,16.24,0,.02.02.02.02.04,2.13,4.01,4.31,8.04,6.59,12.07l.11.21c29.65,53.65,68.15,102.32,113.02,144.57,15.07,6.46,30.72,11.08,47.02,13.84h.02c19.85,3.39,40.63,4.05,62.42,1.94,22.15-2.17,45.3-7.16,69.6-15.01h.02c17.74-5.75,36.11-13,55.08-21.81,44.98-20.87,93.47-50.37,145.89-88.57,3.58-2.6,7.18-5.26,10.79-7.95-7.97,1.9-16.16,3.45-24.49,4.63h-.02c-5.9.85-11.87,1.49-17.91,1.98h-.06c-1.92.15-3.88.28-5.82.4-.04,0-.09,0-.13.02-32.94,1.96-67.72-1.26-102.11-9.42-5.37-3.45-10.51-6.93-15.43-10.44h.68c12.77,0,27.31-.09,42.57-.36h.02s.02-.02.04,0h.02c6.4-.13,12.92-.26,19.5-.45l-3.16-1.09c-1.64-.57-3.28-1.13-4.92-1.71-6.23.15-12.38.26-18.4.36h-.08c-14.64.21-28.44.26-40.44.23-7.57-5.56-14.56-11.17-21.08-16.78,10.72,1,22.08,2,33.74,2.96,5.86.49,11.81.96,17.78,1.41-2.47-1.15-4.92-2.35-7.33-3.58-5.65-.45-11.25-.92-16.75-1.38-.02,0-.02-.02-.02-.02-10.85-.9-21.38-1.85-31.31-2.77-4.69-4.16-9.1-8.29-13.24-12.39,8.83,1.68,18.16,3.35,27.99,4.97l.02.02c5.48.9,11.11,1.81,16.9,2.69-2.34-1.34-4.62-2.71-6.91-4.13-5.52-.89-10.89-1.77-16.1-2.67-9-1.54-17.55-3.11-25.65-4.67-6.57-6.72-12.45-13.28-17.67-19.57h.02c7.76,3.41,15.77,6.76,24.05,9.98l.02.02c6.95,2.71,14.09,5.37,21.42,7.93-3.03-2.11-6.07-4.22-9.02-6.42,0,0,0-.02-.02-.02-6.89-2.54-13.6-5.16-20.15-7.84-7.03-2.88-13.86-5.84-20.49-8.83-5.52-6.97-10.21-13.52-14.16-19.5-3.96-5.97-7.16-11.34-9.72-15.94,5.52,3.45,11.21,6.86,17.07,10.23-2.41-2.52-4.78-5.09-7.12-7.7-4.39-2.62-8.65-5.26-12.83-7.89-3.71-7.14-5.35-11.41-5.42-11.6l-2.83,1.05c.06.15,1.07,2.81,3.28,7.38-10.89-7.06-21.12-14.18-30.72-21.28-4.9-14.15-8.33-26.54-10.68-36.26l.02.02c2.47,2.47,4.97,4.94,7.55,7.4,4.77,4.58,9.72,9.12,14.88,13.64-2.07-3.16-4.13-6.35-6.14-9.57v-.02c-4.93-4.52-9.7-9.1-14.3-13.73v-.02c-1.13-1.11-2.24-2.24-3.33-3.37-2.34-10.42-3.16-16.61-3.2-16.86l-2.99.4c.04.21.64,4.65,2.22,12.3-7.91-8.34-15.24-16.75-22.08-25.11-.57-10.55-.64-21.06-.06-31.48.08-1.24.17-2.49.24-3.75,2.03,2.6,4.11,5.16,6.27,7.74-1.22-3.01-2.39-6.07-3.52-9.12-.81-1.04-1.6-2.07-2.39-3.11.07-.9.15-1.83.24-2.73,4.18-42.66,19.19-83.71,50.05-120.98,24.07-30.46,55.17-53.87,85.57-77.68-58.81,32.93-117.97,75.48-150.18,136.28-.77,1.51-1.54,3.03-2.26,4.56-.9,1.83-1.75,3.67-2.54,5.52-2.39,5.41-4.5,10.92-6.37,16.52-4.2-7.42-7.99-14.67-11.32-21.62,6.74-21.68,13.2-33.1,13.34-33.34l-2.6-1.51c-.15.24-6.12,10.79-12.62,30.87-.02,0-.02-.02-.02-.02-7.48-16.07-12.68-30.31-16.12-41.04,7.63-9.76,15.67-19.18,24.13-28.27.87-.92,1.73-1.85,2.6-2.75,35.66-37.69,78.06-69.79,123.13-96.7,5.39,2.62,10.77,5.48,16.14,8.63,9.91,5.61,19.44,11.83,28.84,18.27-8.78-7.35-17.95-14.18-27.63-20.29-4.75-3.01-9.49-5.82-14.28-8.4,13.2-7.82,26.62-15.16,40.14-22.08,13.54-6.93,27.2-13.41,40.86-19.48.23-.09.47-.21.7-.3,20.55,8.02,40.5,17.54,59.65,28.76-18.52-11.26-37.99-21.02-58.18-29.38,40.27-17.37,82.18-31.12,125.51-39.39-11.17,1.13-22.26,2.96-33.32,5.05-22.06,4.43-43.85,10.34-65.12,17.71-11.77,4.18-23.45,8.66-35.03,13.43-19.89-7.82-40.44-14.32-61.35-19.61,52.97-21.51,109.74-33.32,168.85-38.31,61.35,28.8,120.66,67.7,168.7,103.75ZM590.8,350.34c14.15,1.83,28.24,4.13,42.19,6.95-27.01,11.34-53.08,25.26-78,42.17-1.73-.15-3.48-.26-5.22-.36,12.17-16.69,25.81-33,41.03-48.77ZM546.44,403.74c.75.02,1.53.06,2.28.09-1.56,1.07-3.09,2.17-4.63,3.28.77-1.13,1.56-2.26,2.35-3.37ZM483.03,695.36c-1.09-3.86-2.11-7.72-3.03-11.62,1.07,1.28,2.17,2.6,3.3,3.94l.02.02c-.11,2.52-.23,5.07-.28,7.67ZM483.51,683.25c-1.75-2.11-3.39-4.13-4.99-6.12-2.98-13.92-4.95-28.1-5.9-42.42v-.02c-.75-11.53-.79-23.13-.19-34.79,4.63,10.08,10.27,21.36,17.07,33.45-1.36,7.25-2.58,15.05-3.62,23.38-1.02,8.33-1.83,17.2-2.35,26.56,0-.02-.02-.02-.02-.04ZM502.13,704.29c-5.8-6.18-11.04-12.09-15.77-17.65.9-18.4,2.9-34.81,5.44-49.18,3.62,6.25,7.65,12.88,12.11,19.82-1.66,11.96-2.35,24.07-2.17,36.11.06,3.64.19,7.27.38,10.91ZM505.96,752.73c-.98-1.86-1.96-3.71-2.9-5.59,0,0-.04-.02-.04-.04-6.8-13.6-12.53-27.73-17.14-42.21.04-4.73.13-9.34.3-13.83,4.88,5.63,10.27,11.62,16.2,17.86.96,15.31,3.01,30.51,5.76,45.62-.73-.62-1.45-1.22-2.18-1.81ZM508.26,663.87c6.95,10.4,14.9,21.32,23.85,32.51.58,13.68,2.07,27.43,4.31,41.19-10.53-9.34-19.98-18.46-28.39-27.11-.41-5.71-.72-11.43-.83-17.16-.28-10.23.09-20.02,1.05-29.44ZM556.02,820.9c-14.67-14.75-27.54-30.95-38.54-48.24-.6-2.71-1.15-5.44-1.71-8.16,4.86,3.8,10,7.7,15.45,11.68,5.1,3.71,10.64,7.59,16.48,11.53,2.13,7.48,4.39,14.96,6.84,22.38,1.53,4.69,3.11,9.34,4.73,14-1.09-1.04-2.17-2.11-3.24-3.18ZM568.31,832.52c-2.96-8.01-5.76-16.07-8.4-24.17-1.73-5.26-3.37-10.53-4.93-15.82,10.77,7.04,22.66,14.3,35.69,21.57,5.27,11.06,11.36,22.53,18.35,34.13-6.48-1.58-12.43-3.11-17.86-4.56-5.41-1.47-10.3-2.84-14.69-4.13-2.77-2.28-5.48-4.61-8.16-7.03ZM621.1,869.95c-4.73-2.67-9.42-5.44-14.03-8.33-8.55-5.35-16.71-11.11-24.51-17.2,8.12,2.28,17.67,4.78,28.65,7.44h.02c3.75,6.08,7.76,12.21,12.04,18.31-.73-.08-1.47-.15-2.17-.23ZM712.59,906.91c-9.25-2.43-18.46-5.2-27.58-8.33,4.77.04,10.08.08,15.82.08,3.79,2.77,7.7,5.52,11.75,8.25ZM675.63,878.41c6.5,5.75,13.52,11.51,21.12,17.22-7.85-.02-14.77-.09-20.44-.15-15.65-5.78-31-12.6-45.85-20.42-.3-.4-.57-.77-.85-1.17,6.12.64,13.13,1.34,20.87,2.11,7.74.75,16.18,1.58,25.13,2.41h.02ZM658.38,862.1c4.2,4.26,8.68,8.59,13.45,12.92-17.54-1.64-32.96-3.2-44.59-4.43-4.2-5.91-8.16-11.83-11.85-17.72,6.29,1.49,13,3.01,20.17,4.56,7.16,1.54,14.75,3.11,22.79,4.67h.02ZM654.69,858.29c-15.58-3.07-29.42-6.14-41.55-9.06-6.78-11.04-12.71-21.98-17.91-32.59,12.62,6.88,26.26,13.75,40.87,20.36,5.41,6.78,11.58,13.94,18.59,21.28ZM608.94,795.87c4.58,8.72,12.02,21.34,23.17,36-14-6.5-27.05-13.2-39.14-19.93-6.31-13.28-11.45-25.96-15.63-37.58,9.89,7.21,20.4,14.43,31.61,21.51ZM573.01,771.21c4.09,11.73,9.17,24.62,15.45,38.2-12.73-7.2-24.3-14.37-34.79-21.3-3.84-13.32-7.14-26.69-9.78-40.05,8.98,7.63,18.67,15.37,29.1,23.13l.02.02ZM560.79,728.91l.02.02c2.15,9.49,5.48,22.26,10.47,37.2-10.15-7.67-19.55-15.28-28.27-22.79-2.47-13.35-4.26-26.71-5.2-39.99,7.06,8.46,14.69,17.03,22.98,25.56ZM537.19,742.26c2.39,13.68,5.54,27.37,9.27,40.99-4.69-3.22-9.17-6.37-13.35-9.42-6.5-4.73-12.56-9.36-18.23-13.86-2.9-14.86-5.16-29.82-6.46-44.83,8.55,8.68,18.12,17.8,28.78,27.12ZM520.8,611.58c.79-2.02,1.6-3.99,2.47-5.97,22.64-52.36,66.76-90.79,116.9-125.86-20.14,15.41-38.54,33.13-54.81,52.53-29.31,34.62-44.94,72.82-50.8,112.66-.36,2.51-.68,5.03-.98,7.53-.68-.94-1.39-1.88-2.07-2.83-5.76-8.06-10.93-16.1-15.62-24,1.47-4.8,3.11-9.49,4.92-14.07ZM514.74,629.6c5.43,9,11.55,18.18,18.38,27.33-1.11,11.32-1.49,22.74-1.19,34.23-8.57-10.93-16.26-21.74-23.13-32.21,1.3-10.23,3.28-20,5.93-29.35ZM499.95,602.52c3.37,6.88,7.16,14,11.36,21.28-2.9,9.36-5.12,18.95-6.67,28.65-4.31-6.82-8.29-13.47-11.92-19.89,2.18-11.43,4.71-21.44,7.23-30.04ZM498.01,598.52c-2.6,8.51-5.24,18.53-7.55,30.01,0-.02-.02-.02-.02-.04-7.16-12.94-12.94-24.84-17.56-35.19.79-10.62,2.13-21.27,4.11-31.89.51-.72,1.02-1.43,1.53-2.13.81-1.07,1.64-2.11,2.45-3.16,3.71,11.26,9.21,25.96,17.05,42.4ZM553.84,469.1c-15.71,12.39-30.76,25.6-45.06,39.63-.72.68-1.43,1.38-2.13,2.07-5.18,5.12-10.25,10.36-15.2,15.69-2.96,3.28-5.88,6.65-8.76,10.06.4-1.47.81-2.92,1.24-4.39,5.8-19.83,13.24-39.8,22.45-59.6.02-.04.04-.08.06-.11.09-.23.21-.45.32-.68,5.97-12.79,12.68-25.52,20.17-38.09,11.94-10.38,24.22-19.91,36.82-28.67,19.99,2.3,40.1,7.57,60.2,16.31-24.43,14.35-47.92,30.25-70.13,47.77ZM709.63,378.76c-28.18,11.7-55.72,25.2-82.18,40.54-9.57-4.63-19.21-8.42-28.89-11.43-9.68-2.99-19.4-5.22-29.16-6.71,24.43-16.43,50.03-29.99,76.63-41.08,21.61,4.86,42.89,11.02,63.61,18.69ZM637.49,355.42c-14.41-3.3-28.97-6.05-43.59-8.29,24.22-24.64,52.33-47.88,84.63-69.07,5.14.28,10.28.75,15.43,1.39,38.35,5.88,78.47,19.48,117.9,37.47-61.03,4.39-119.63,16.2-174.37,38.5Z"/>
  <path class="cls-8" d="M597.73,310.87c26.57-14.69,53.65-28.28,81.14-41.14,27.57-12.54,55.21-25.35,84.36-33.8-41.93,17.41-83.07,36.44-122.97,58.09-13.32,7.13-26.65,14.3-39.74,21.77l-2.79-4.92h0Z"/>
  <g>
    <path class="cls-6" d="M482.9,342.01c36.53-2.14,73.38.28,109.38,6.78-36.37-3.76-72.82-6.18-109.38-6.78h0Z"/>
    <path class="cls-6" d="M374.22,458.04c44.02-31.48,95.91-55.19,150.66-57.34,7.78-.22,15.56-.12,23.29.6-62.53-1.06-121.61,24.49-173.95,56.73h0Z"/>
    <path class="cls-6" d="M556.02,820.9c45.13,65.55,99.02,131.67,159.26,187.12-63.08-52.38-117.5-119.3-159.26-187.12h0Z"/>
    <path class="cls-6" d="M660.21,1029.83c-66.99-63.9-126.3-150.98-147.29-237.48-2.8-12.24-4.88-24.68-5.7-37.21.95,8.31,2.34,16.56,4.11,24.72,20.17,89.54,82.91,181.63,148.88,249.97h0Z"/>
    <path class="cls-6" d="M472.62,634.69c-37.9,122.46,9.07,254.42,74.24,351.71,13.52,20.25,28.12,39.76,43.73,58.45-16.22-18.2-31.34-37.39-45.17-57.48-67.2-96.66-114.43-231.25-72.8-352.68h0Z"/>
    <path class="cls-6" d="M478.16,555.43c-90.71,111.63-82.85,280.74-16.84,403.39,17.27,31.55,39.21,60.84,66.83,84.09-35.38-28.16-61.78-66.53-81-107.24-55.45-119.58-57.54-276.67,31.01-380.24h0Z"/>
    <path class="cls-6" d="M530.46,427.87c-84.96,36.16-155.66,102.43-203.76,180.66-3.25,5.48-6.46,10.98-9.45,16.61l-4.49,8.44c42.03-90.34,123.91-170.7,217.71-205.71h0Z"/>
    <path class="cls-6" d="M353.08,855.94c-19.82-139.24,27.46-259.65,125.27-356.97,9.07-9.09,18.41-17.92,28.04-26.41-18.63,17.63-36.39,36.19-52.88,55.83-79.83,94.53-114.11,202.65-100.43,327.54h0Z"/>
    <path class="cls-6" d="M314.62,619.37c70.16,86.21,156.81,159.23,249.29,213.05,0,0-.14-.04-.14-.04.09-.01.23.09.22.09.02,0-.11-.09-.18-.07l.14.04,12.57,7.16-12.85-6.66.14.04c-.09.01-.23-.09-.22-.09-.02,0,.11.09.18.08l-.14-.04c-94.32-51.04-181.94-124.67-249.01-213.55h0Z"/>
    <path class="cls-6" d="M361.39,872.17c45.53,48.22,106.21,81.75,171.71,92.91,0,0-.24-.02-.24-.02,0,0,1.38,0,1.39,0,0,0,0,1.37,0,1.37.02.08-1.13-1.35-1.13-1.33,13.18,2.35,26.5,3.91,39.87,4.77,40.17,2.55,80.51-.92,120.05-8.33,52.81-9.8,104.38-26.21,154.42-45.4-37.26,15.52-75.45,28.88-114.54,39-65.03,16.78-133.72,24.81-200.28,12.66,0,0-1.13-.21-1.13-.21,0-.02,0-1.14,0-1.16,0,0,1.37,1.37,1.37,1.37-.07,0-.2,0-.26-.02-65.79-11.41-126.78-45.92-171.22-95.6h0Z"/>
    <path class="cls-6" d="M823.67,918.51c-166.24,30.79-350.78-10.75-466.78-139.23-16.25-17.89-31.15-37.2-44.01-57.54,40.25,60.19,95.61,109.84,159.3,144.15,106.61,57.89,232.74,70.91,351.5,52.61h0Z"/>
    <path class="cls-6" d="M503.06,747.14c-30.43-30.6-56.77-63.42-76.05-102.05-18.57-34.87-28.52-74.12-23.91-115.38,4.02-40.61,21.94-78.96,48.33-109.85,51.62-62.78,122.54-106.44,196.2-138.95,18.5-8.12,37.26-15.64,56.25-22.51-18.82,7.32-37.46,15.09-55.8,23.51-72.77,33.52-143.18,77.18-194.4,139.78-25.89,30.63-43.8,68.19-47.87,108.31-4.63,40.41,4.78,78.92,23.12,114.87,18.02,36.44,44.74,71.81,74.15,102.27h0Z"/>
  </g>
  <path class="cls-9" d="M784.86,233.9c-1.03,9.19-9.44,16.25-19.37,16.25-10.6,0-19.87-7.95-20.05-18.4-.2-11.21,9.99-19.71,21.93-18.33,11.1,1.29,18.59,10.69,17.49,20.47Z"/>
  <circle class="cls-4" cx="685.11" cy="448.17" r="20.74"/>
  <circle class="cls-23" cx="995.15" cy="319.64" r="14.01"/>
  <path class="cls-11" d="M743.66,224.76c-9.68.85-22.66,1.3-32.08,2.35-5.78.79-18.44,2.15-23.9,2.86-44.81,6.42-89.08,18.37-130.84,35.81-143.96,60.65-248.43,190.94-271.52,345.59l-2.22,15.6-1.39,15.69c-1.02,10.28-1.11,21.13-1.47,31.46.21,9.06.15,22.53,1.02,31.46.85,15.03,2.98,31.96,5.39,46.83,9.06,51.72,29.4,101.04,55.11,146.68,19.23,34.79,41.85,67.53,67.3,97.87-9.02,1.51-17.95,2.39-24.02,2.86-24.66-30.55-46.51-63.33-65.14-97.89-19.38-36.15-35.66-74.03-45.88-113.88-4.07-15.88-7.46-32.27-9.21-48.6-1.28-9.72-2.49-23.09-2.9-32.74-.4-4.9-.62-11.57-.6-16.41l-.09-16.43c.15-7.91.85-16.67,1.11-24.62.45-5.48,1.92-18.84,2.45-24.51.81-5.37,2.94-19.16,3.77-24.34,1.81-7.74,3.24-16.41,5.07-24.09,1.53-5.44,4.78-18.5,6.39-23.77,47.24-157.92,175.7-275.74,335.74-313.23,23.26-5.73,47.83-9.59,71.63-12.04,6.54-.55,17.8-1.22,24.11-1.73,9.76-.57,22.47-.49,32.19-.79Z"/>
  <path class="cls-18" d="M905.59,1232.72c-2.94,3.8-4.8,8.48-5.09,13.54-166.19,1.79-333.96-64.46-456.89-182.88-20.89-19.87-40.5-41.12-58.58-63.57,6.07-.47,14.99-1.36,24.02-2.86,121.44,144.79,307.33,235.4,496.54,235.77Z"/>
  <path class="cls-15" d="M1271.7,1104.8c-16.18,14.11-33.08,27.41-50.69,39.76-82.2,58.07-175.31,90.09-270.49,99.08-.77-4.58-2.83-8.74-5.8-12.11,12.04-.79,24.07-1.94,36.07-3.47,63.37-8.04,125.2-26.46,182.65-54.66,38.37-18.91,74.61-42.1,108.25-68.6Z"/>
  <path class="cls-13" d="M240.61,647.81c-55.61,292.34,205.58,551.45,476.99,605.79,64.38,13.37,130.8,15.88,196.06,6.07-86.45,18.78-177.76,12.22-262.4-12.83-249.78-71.42-479.31-327.44-410.66-599.02h0Z"/>
  <ellipse class="cls-7" cx="772.31" cy="1264.78" rx="22.34" ry="21.94"/>
  <ellipse class="cls-12" cx="925.66" cy="1240.4" rx="22" ry="21.64"/>
  <path class="cls-16" d="M1071.66,1177.62c-30.76,9.59-62.4,16.46-94.69,20.55-12.06,1.54-24.26,2.67-36.54,3.41-8.91.55-17.86.87-26.78.96h-.02c-2.28.04-4.56.06-6.84.06-1.98,0-3.96-.02-5.93-.04h-.02c-6.27-.06-12.56-.24-18.84-.53-4.86-.21-9.72-.49-14.56-.83-24.15-1.7-48.18-4.94-72.01-9.63h-.02c-20.72-4.07-41.27-9.25-61.54-15.48-8.87-2.71-17.69-5.63-26.43-8.76-2.64-.94-5.26-1.88-7.87-2.88-2.6-.98-5.2-1.98-7.82-2.99-77.74-29.97-150.01-75.29-210.63-132.4,11.87,5.09,24.13,9.04,36.75,11.83,2.81.64,5.63,1.21,8.48,1.7,12.04,2.19,24.43,3.33,37.18,3.43,2.45.06,4.94.04,7.44-.02h.02c8.27-.17,16.69-.75,25.28-1.79,2.34-.26,4.67-.57,7.03-.9,12.53-1.79,25.39-4.46,38.58-8.02,1.92-.51,3.84-1.05,5.76-1.6,8.08-2.34,16.29-4.97,24.66-7.93.02-.02.06-.04.08-.04,1.32-.47,2.64-.94,3.96-1.43l.04-.02c.89-.32,1.77-.66,2.66-1,.04-.02.06-.02.09-.04,9.51-3.58,19.16-7.53,29.03-11.94l.15-.08c.83-.36,1.66-.73,2.49-1.13,3.05-1.38,6.12-2.81,9.21-4.28.85-.4,1.71-.81,2.56-1.22h.02c.85-.4,1.68-.81,2.52-1.22,5.43-2.64,10.91-5.39,16.43-8.29l2.56-1.34c.79-.41,1.62-.83,2.41-1.28,8.18-4.35,16.44-8.95,24.84-13.84,31.87-18.5,65.38-40.87,100.62-67.09,59.26,163.44,128.07,229.16,199.7,266.12Z"/>
  <path class="cls-3" d="M707.45,1167.34c-42.06-14.97-82.14-35.85-118.44-61.9-25.81-19.06-50.29-39.99-71.12-64.55,2.81.64,5.63,1.21,8.48,1.7,18.95,22.4,41.42,42.4,64.55,60.29,35.51,26.8,75.01,48.54,116.54,64.46ZM721.78,1169.5c-56.75-32.06-107.16-75.21-150.78-123.51h-.02c-2.51.06-4.99.08-7.44.02,11.32,12.26,23.15,23.87,35.34,35.15,35.52,32.66,74.33,62.14,116.61,85.5,4.03,2.09,14.16,7.29,18.38,9.44l-12.09-6.59ZM603.3,1043.3c-2.35.34-4.69.64-7.03.9,14.41,13.98,29.35,27.12,44.66,39.95,48.13,40.35,99.83,76.47,154.48,107.42-69.47-41.65-134.49-91.34-192.11-148.28ZM647.64,1033.68c-1.92.55-3.84,1.09-5.76,1.6,56.13,76.83,139.82,128.01,225.56,165.93-83.95-39.2-165.51-91.02-219.8-167.53ZM746.5,992.44l-4.98,2.63c14.29,19.27,28.96,38.79,43.87,57.61,44.6,56.23,93.79,110.52,155.04,148.91-80.59-53.02-138.38-131.58-193.9-208.94l-.03-.21ZM725.1,1003.35c-.85.41-1.68.83-2.52,1.22h-.02c-.85.41-1.71.83-2.56,1.22,13.73,18.57,28.46,37.09,43.3,54.68,44.74,52.53,93.22,102.88,150.33,142.06-74.38-54.02-134.7-125.3-188.53-199.19ZM710.64,1009.85s-4.9,2.82-4.9,2.82c43.84,73.17,117.57,152.9,195.12,189.9-76.39-38.37-148.16-119.14-190.22-192.72h0ZM679.02,1023.26c-.89.34-1.77.68-2.66,1l-.04.02c-1.32.49-2.64.96-3.96,1.43-.02,0-.06.02-.08.04,61.78,73.78,121.46,133.62,209.51,176.19-86.72-44.15-142.82-104.07-202.79-178.68Z"/>
  <path class="cls-6" d="M711.29,906.55c28.86,20.11,63.34,30.25,97.58,36.55,4.78.96,10.07,1.71,14.85,2.61-3.61-.18-7.68-.48-11.31-.75-35.46-3.57-73.93-14.44-101.13-38.41h0Z"/>
  <path class="cls-6" d="M644.5,882.06c37.84,37.6,80.03,70.8,126.84,96.54-48.75-22.05-92.01-56.07-126.84-96.54h0Z"/>
  <circle class="cls-6" cx="801.48" cy="969.5" r="2.77"/>
  <circle class="cls-6" cx="820.84" cy="984.11" r="3.19"/>
  <circle class="cls-14" cx="801.1" cy="1044.57" r="3.38"/>
  <circle class="cls-20" cx="870.13" cy="1117.11" r="4.51"/>
  <path class="cls-17" d="M871.96,911.5c-3.62,2.69-7.21,5.35-10.79,7.95-10.57.17-21.13-.3-31.63-1.34h-.06c-6.65-.66-13.26-1.56-19.83-2.69-1.56-.26-3.13-.55-4.67-.83-7.38-1.39-14.71-3.07-21.98-5.01-1.71-.47-3.43-.94-5.14-1.43-9.66-2.79-19.19-6.08-28.54-9.83h-.02s-.02-.02-.04,0h-.02c-2.35-.92-4.6-1.9-6.91-2.9h-.08c-2.54-1.09-4.99-2.22-7.5-3.39-6.91-3.18-13.68-6.59-20.29-10.21-2.13-1.17-4.2-2.34-6.29-3.54-.02,0-.02-.02-.02-.02-5.63-3.22-11.13-6.63-16.54-10.17l-.02-.02c-2.05-1.34-4.09-2.69-6.1-4.09-6.59-4.52-13-9.27-19.23-14.24l-.02-.02c-2.62-2.05-5.2-4.18-7.76-6.33-15.99-13.43-30.78-28.27-44.34-44.21l-.02-.02s-.04-.04-.06-.06v-.02c-2.13-2.47-4.18-4.95-6.22-7.48,0,0-.02,0-.02-.02-.9-1.11-1.77-2.2-2.67-3.33,0-.02-.02-.02-.02-.02-11.96-15.11-22.89-31.1-32.72-47.77-1.88-3.2-3.75-6.42-5.56-9.68v-.02c-1.47-2.64-2.9-5.27-4.31-7.95,0,0,0-.02-.02-.02-1.62-3.07-3.24-6.16-4.78-9.27-.02-.02-.02-.04-.02-.04-7.63-15.24-14.41-30.89-20.31-46.85-.94-2.52-1.85-5.05-2.73-7.57-.47-1.36-.94-2.71-1.41-4.07-.6-1.79-1.21-3.58-1.79-5.37-3.39-10.38-6.42-20.83-9.08-31.36-.55-2.22-1.09-4.46-1.62-6.71-.66-2.71-1.28-5.46-1.88-8.19-2.5-11.28-4.71-22.7-6.54-34.17-.26-1.71-.53-3.43-.77-5.14-1.94-13.02-3.39-26.09-4.28-39.1-.17-2.41-.3-4.82-.43-7.23-.09-2.3-.19-4.61-.25-6.93-.41-12.71-.49-25.65-.21-38.35.04-1.86.09-3.71.15-5.56.04,1.62.09,3.26.17,4.88.4,12.32,1.04,24.66,2.02,36.96.34,4.5.72,9,1.15,13.49.81,8.53,1.77,17.05,2.9,25.54,1.98,16.73,4.84,33.47,8.63,50.1.57,2.6,1.17,5.18,1.81,7.74,3.2,13.22,6.97,26.37,11.28,39.33,1.21,3.6,2.45,7.18,3.73,10.76.7,1.96,1.41,3.9,2.15,5.84,1.13,3.05,2.3,6.1,3.52,9.12,10.19,25.73,22.62,50.54,37.22,73.88v.02c2.02,3.22,4.07,6.4,6.14,9.57l.02.02c11.11,16.78,23.36,32.7,36.73,47.52,2.34,2.62,4.71,5.18,7.12,7.7,14.6,15.33,30.42,29.38,47.47,41.87.02,0,.02.02.02.02,2.96,2.2,5.99,4.31,9.02,6.42.04,0,.06.02.09.04,4.52,3.09,9.14,6.08,13.83,8.95,2.3,1.41,4.58,2.79,6.91,4.13,0,0,.02.02.04.02,5.35,3.11,10.81,6.07,16.37,8.85,2.41,1.22,4.86,2.43,7.33,3.58,0,0,0,.02.02.02,9.23,4.35,18.7,8.31,28.46,11.81,1.64.58,3.28,1.15,4.92,1.71l3.16,1.09s.06-.02.07,0l6.27,2.09,9.68,2.64c4.84,1.32,9.72,2.49,14.64,3.52,2.13.45,4.26.87,6.39,1.26,5.75,1.07,11.55,1.96,17.35,2.64,1.71.23,3.41.41,5.12.57,14.5,1.47,29.12,1.77,43.62.92Z"/>
  <circle class="cls-1" cx="267.63" cy="610.96" r="25.25"/>
  <circle class="cls-22" cx="266.49" cy="610.39" r="25.25"/>
  <circle class="cls-19" cx="287.17" cy="949.68" r="25.43"/>
  <circle class="cls-5" cx="283.2" cy="947.64" r="25.43"/>
</svg>